<svg viewBox="0 0 24 24" xmlns="http://www.w3.org/2000/svg" fill="#ffffff">
  <path d="M16.365 1.43c0 1.14-.438 2.28-1.312 3.126-.874.874-2.2 1.548-3.36 1.462-.146-1.092.438-2.252 1.284-3.126.874-.902 2.37-1.548 3.388-1.462zm3.563 16.67c-.438 1.014-.874 2.028-1.46 2.952-.782 1.206-1.422 2.028-2.432 2.056-.982.028-1.298-.642-2.432-.642-1.134 0-1.482.614-2.404.67-.982.028-1.734-.978-2.516-2.184-1.566-2.41-2.754-6.812-1.16-9.786.782-1.474 2.18-2.41 3.704-2.438.954-.028 1.86.698 2.432.698.572 0 1.648-.86 2.782-.732.474.02 1.806.192 2.662 1.446-.07.044-1.586.924-1.566 2.754.02 2.184 1.916 2.91 1.944 2.924z"></path>
</svg>
